<svg xmlns="http://www.w3.org/2000/svg" viewBox="0 0 38.34 38.34"><defs><style>.cls-1{fill:none;stroke:gray;stroke-miterlimit:10;stroke-width:1.1px;}.cls-2{fill:gray;}</style></defs><title>line</title><g id="圖層_2" data-name="圖層 2"><g id="圖層_1-2" data-name="圖層 1"><path class="cls-1" d="M19.17.55A18.62,18.62,0,1,0,37.79,19.17,18.62,18.62,0,0,0,19.17.55Z"/><path class="cls-2" d="M12.81,22.5c-1,0-1.92,0-2.88,0a.85.85,0,0,1-.93-1c0-2,0-3.94,0-5.91,0-.56.21-.94.84-.92s.76.37.76.91c0,1.42,0,2.85,0,4.27v1h2.18c.52,0,.89.21.91.78S13.31,22.5,12.81,22.5Z"/><path class="cls-2" d="M16.13,21.67c0,.28-.48.74-.78.78-.51.07-.78-.33-.77-.89,0-1,0-2,0-3v-3c0-.5.17-.83.71-.87a.74.74,0,0,1,.87.81C16.18,17.57,16.2,19.62,16.13,21.67Z"/><path class="cls-2" d="M23.15,22.39a1.11,1.11,0,0,1-.92-.31c-.87-1.08-1.67-2.23-2.5-3.34-.16-.22-.34-.41-.7-.84,0,1.24,0,2.22,0,3.21,0,.28,0,.64-.1.82a1.27,1.27,0,0,1-.84.51.91.91,0,0,1-.61-.66c-.05-2.14,0-4.28,0-6.42,0-.21.3-.59.45-.59a1.46,1.46,0,0,1,1,.36c.88,1.1,1.69,2.27,2.53,3.41.13.17.29.32.61.68,0-1.14,0-2,0-2.92a6.14,6.14,0,0,1,0-.86c.06-.49.36-.85.85-.7a1.11,1.11,0,0,1,.68.74c.06,2.05.05,4.1,0,6.15A1,1,0,0,1,23.15,22.39Z"/><path class="cls-2" d="M28.65,17.8c.52,0,.9.16.91.75s-.37.78-.88.79c-.69,0-1.39,0-2.14,0v1.57h2c.53,0,1,.13,1,.78s-.42.81-.95.82H25.9a.87.87,0,0,1-1-1c0-2,0-3.93,0-5.9,0-.64.25-.94.91-.93,1,0,1.91,0,2.87,0,.52,0,.9.15.89.75s-.41.76-.91.76H26.54v1.6Z"/></g></g></svg>