<svg xmlns="http://www.w3.org/2000/svg" viewBox="0 0 151.3 25"><defs><style>.cls-1{fill:#458ac2;}.cls-1,.cls-3{fill-rule:evenodd;}.cls-2,.cls-3{fill:#40569b;}.cls-4{fill:#fff;}</style></defs><title>logo</title><g id="圖層_2" data-name="圖層 2"><g id="圖層_1-2" data-name="圖層 1"><path class="cls-1" d="M41.73,1.64a69.22,69.22,0,0,0-17.89,2.2A83.21,83.21,0,0,1,38.2,2.64C56.86,2.64,72,8.31,72,15.31c0,3.89-4.67,7.37-12,9.69,8.28-2.32,13.69-6.17,13.69-10.53C73.66,7.38,59.36,1.64,41.73,1.64Z"/><path class="cls-2" d="M24.9,14.24l.34-1.39.18,0h.34a1.85,1.85,0,0,0,1.8-1.67,1.39,1.39,0,0,0,0-.27,1.26,1.26,0,0,0-.65-1.19,1.54,1.54,0,0,0-1-.22.57.57,0,0,1-.26,0L23.1,19.44H20.67l2.41-9.26a2.38,2.38,0,0,1-1.22.31l-.47,0L21.77,9h.38a1.63,1.63,0,0,0,1.51-1h2c1.71,0,2.9.43,3.56,1.35a2.34,2.34,0,0,1,.51,1.49,3,3,0,0,1-.43,1.53,3.18,3.18,0,0,1-1.13,1.17,2.77,2.77,0,0,1,1,2.25,4,4,0,0,1-.41,1.72A3.89,3.89,0,0,1,27.41,19a3,3,0,0,1-1.7.55,2.6,2.6,0,0,1-1.19-.28c-.11,0-.39-.19-.84-.42l.41-1.68a1.31,1.31,0,0,0,.28.24,1.35,1.35,0,0,0,.75.29.85.85,0,0,0,.3.05,1.62,1.62,0,0,0,1-.35,1.82,1.82,0,0,0,.69-1.12,2.79,2.79,0,0,0,.05-.47,1.39,1.39,0,0,0-1-1.38,3,3,0,0,0-1.25-.19l0,0Z"/><path class="cls-2" d="M32.05,17.76a.4.4,0,0,0,.26.07,1.56,1.56,0,0,0,.65-.18,1.75,1.75,0,0,0,.75-.92l1.18-4.5H37L35.12,19.5H33l.13-.44a4,4,0,0,1-1.86.48h-.34a1.65,1.65,0,0,1-1.25-1.83,2.49,2.49,0,0,1,0-.49l1.32-5h2.1l-1.32,5v.15A.44.44,0,0,0,32.05,17.76Z"/><path class="cls-2" d="M42.39,14.26a3.39,3.39,0,0,0-2-.63,1,1,0,0,0-.52.17.47.47,0,0,0-.26.41c0,.17.21.36.65.58a8.14,8.14,0,0,1,1.23.71,1.62,1.62,0,0,1,.64,1.28,2.69,2.69,0,0,1-.87,2.09,3.18,3.18,0,0,1-2.19.78,6.16,6.16,0,0,1-1.25-.18,3.28,3.28,0,0,1-1.15-.38l.43-1.7a3.9,3.9,0,0,0,2,.49c.67,0,1-.19,1-.57s-.2-.54-.6-.76l-1.2-.66a1.41,1.41,0,0,1-.62-1.19,2.51,2.51,0,0,1,.91-2A3.06,3.06,0,0,1,40.63,12a3.78,3.78,0,0,1,2.19.57Z"/><path class="cls-2" d="M51.51,7.8a6.07,6.07,0,0,1,1.65.26,3.93,3.93,0,0,1,1.21.49l-.57,2.12A4.84,4.84,0,0,0,51,9.86a1.47,1.47,0,0,0-.83.26,1.28,1.28,0,0,0-.62.86c-.11.49.23,1,1,1.38a7.12,7.12,0,0,1,1.82,1.36,3,3,0,0,1,.65,2.2,3.76,3.76,0,0,1-1.46,2.69,4.21,4.21,0,0,1-2.81.93,6.2,6.2,0,0,1-1.91-.31c-.3-.09-.72-.22-1.26-.42l.57-2.14a5.46,5.46,0,0,0,2.67.7,2.49,2.49,0,0,0,1.27-.3A1.2,1.2,0,0,0,50.72,16a1.68,1.68,0,0,0-1-1.53l-1.19-.69A3.36,3.36,0,0,1,48,13.4a2.33,2.33,0,0,1-.7-1.58,3,3,0,0,1,.07-.64,2.08,2.08,0,0,0,1-.46,2.68,2.68,0,0,0,.76-.86,2.51,2.51,0,0,1-2,.72l-.63,0,.38-1.44h.52a2.38,2.38,0,0,0,1.41-.38A4.38,4.38,0,0,1,51.51,7.8Z"/><path class="cls-2" d="M59.5,20.55a.71.71,0,0,0,.64-.29l.48,1.38a2.89,2.89,0,0,1-2.07.82,1.91,1.91,0,0,1-1.46-.62,1.69,1.69,0,0,1-.49-1.11c0,.09,0-.34.13-1.26L58,14.58a.77.77,0,0,0,0-.15.44.44,0,0,0-.23-.41.38.38,0,0,0-.26-.08,1.11,1.11,0,0,0-.6.24c-.23.2-.38.33-.44.4a1.56,1.56,0,0,0-.35.47L55,19.45h-2.1L55.71,8.62h2.12l-1.07,4.07a3.23,3.23,0,0,1,1.65-.49,1.88,1.88,0,0,1,.51.06,1.94,1.94,0,0,1,1.24,1.88,2,2,0,0,1,0,.44l-1.27,4.89a1.32,1.32,0,0,0,.19.88A.63.63,0,0,0,59.5,20.55Z"/><path class="cls-2" d="M62,19.36a2.7,2.7,0,0,1-1.44-2.69A4.63,4.63,0,0,1,61,14.58a4.56,4.56,0,0,1,1.45-1.78,3.17,3.17,0,0,1,1.86-.67,2.27,2.27,0,0,1,1,.25,2.68,2.68,0,0,1,1.43,2.67,4.8,4.8,0,0,1-.5,2.1,4.73,4.73,0,0,1-1.45,1.78,3.18,3.18,0,0,1-1.87.66A2.35,2.35,0,0,1,62,19.36Zm2.4-5.57a1.15,1.15,0,0,0-.78.43,3.68,3.68,0,0,0-.74,1.17,4,4,0,0,0-.32,1.48c0,.67.2,1,.59,1a1.15,1.15,0,0,0,.77-.43,3.53,3.53,0,0,0,.75-1.18,4,4,0,0,0,.31-1.46C64.94,14.13,64.74,13.79,64.36,13.79Z"/><path class="cls-2" d="M68.68,18.63l-1.05,4H65.52l2.7-10.39h2.12l-.18.67a2.65,2.65,0,0,1,1.64-.67,1.75,1.75,0,0,1,.65.12,2.29,2.29,0,0,1,1.21,2.37,5.18,5.18,0,0,1-.46,2.1,5.18,5.18,0,0,1-1.36,1.93,2.64,2.64,0,0,1-1.71.74A1.63,1.63,0,0,1,68.68,18.63Zm2.41-5a1.15,1.15,0,0,0-.79.48,3.65,3.65,0,0,0-.7,1.2,3.87,3.87,0,0,0-.28,1.33c0,.68.2,1,.6,1a1.15,1.15,0,0,0,.79-.48A3.68,3.68,0,0,0,71.43,16a3.9,3.9,0,0,0,.26-1.31C71.69,14,71.49,13.66,71.09,13.66Z"/><path class="cls-1" d="M2.08,7.91,5.15,3.79A3.54,3.54,0,0,1,6.64,2.4a3,3,0,0,1,1.7.14,3,3,0,0,1-.51.71,1.17,1.17,0,0,0-1-.12,1.12,1.12,0,0,0-.77,1,1.87,1.87,0,0,0,2.18-.3v0a1.12,1.12,0,1,1-2.13.7,1,1,0,0,1-.06-.43C8.17,4.4,9.83,1.56,8.27,0a1.94,1.94,0,0,1,.79,2.75l4.52,1.37c1.14.35,1.87.58,2.24,1.71l3.56,10.8A2.17,2.17,0,0,1,18,19.37l-5.2,1.71L7.6,22.8a2.18,2.18,0,0,1-2.74-1.38L1.3,10.63c-.38-1.14.07-1.76.78-2.72Z"/><path class="cls-3" d="M1.32,6.16,5.14,2.72A3.5,3.5,0,0,1,6.87,1.65a3.54,3.54,0,0,1,1.94.62h0A4,4,0,0,0,6.52,2,4,4,0,0,0,4.84,3.56L1.77,7.68C1,8.7.5,9.44.93,10.75L4.49,21.54a1.8,1.8,0,0,0,.08.21l-.75.09A2.19,2.19,0,0,1,1.4,20L0,8.67C-.12,7.48.44,7,1.32,6.16Z"/><path class="cls-4" d="M10.14,6.4A7.47,7.47,0,0,1,12,6.11a4.57,4.57,0,0,1,1.45.11l.13,2.45a5.42,5.42,0,0,0-3.25.1,1.51,1.51,0,0,0-.78.56,1.43,1.43,0,0,0-.38,1.12c.07.57.58.94,1.54,1.14a7.37,7.37,0,0,1,2.39.82,3.31,3.31,0,0,1,1.46,2.11,4.21,4.21,0,0,1-.64,3.36,4.73,4.73,0,0,1-2.67,2,7,7,0,0,1-2.14.31c-.34,0-.83,0-1.47,0l-.13-2.47a6,6,0,0,0,3.08-.17,2.65,2.65,0,0,0,1.24-.76,1.31,1.31,0,0,0,.3-1.35,1.9,1.9,0,0,0-1.56-1.29L9,13.78a3.36,3.36,0,0,1-.71-.22A2.62,2.62,0,0,1,7,12.12a3.3,3.3,0,0,1-.14-.71,2.2,2.2,0,0,0,.95-.84A3.22,3.22,0,0,0,8.37,9.4a2.86,2.86,0,0,1-1.93,1.46l-.68.19L5.67,9.39l.56-.18a2.6,2.6,0,0,0,1.36-.89A4.93,4.93,0,0,1,10.14,6.4Z"/><path class="cls-1" d="M25.19,3.81a1.36,1.36,0,1,1-1.35-1.36A1.35,1.35,0,0,1,25.19,3.81Z"/><path class="cls-2" d="M80.87,11.67h2.52c.85,0,1.27.44,1.27,1.32V18.6a1.41,1.41,0,0,0,1,.91,17.18,17.18,0,0,0,4.62.45c2,0,3.79,0,5.46,0,1.46,0,2.71,0,3.73,0a1.16,1.16,0,0,1,.74.21.91.91,0,0,1,.3.73,1.5,1.5,0,0,1-.26,1,1.29,1.29,0,0,1-.87.32H90.83q-4.9,0-6.53-1.25a1,1,0,0,0-.5-.15.33.33,0,0,0-.22.1,9.75,9.75,0,0,1-1.39,1,1.19,1.19,0,0,1-.61.3A.9.9,0,0,1,81,22a2.53,2.53,0,0,1-.72-.89,1.13,1.13,0,0,1-.08-.36A1,1,0,0,1,80.7,20a12.6,12.6,0,0,0,1.7-1.07.53.53,0,0,0,.22-.33V13.94a.16.16,0,0,0-.18-.17H80.87a1,1,0,0,1-.74-.3,1,1,0,0,1-.21-.74,1.07,1.07,0,0,1,.23-.75A.93.93,0,0,1,80.87,11.67Zm.34-5.07a1.21,1.21,0,0,1,.63.16,20.56,20.56,0,0,1,2.91,2.16,1.38,1.38,0,0,1,.37.68,1.07,1.07,0,0,1-.26.67,1.2,1.2,0,0,1-.69.45,1.23,1.23,0,0,1-.59-.12,3.67,3.67,0,0,1-.51-.33,26.76,26.76,0,0,0-2.31-1.75l-.22-.19a1,1,0,0,1-.36-.71,1.05,1.05,0,0,1,.32-.74A1.1,1.1,0,0,1,81.21,6.6Zm.87-4.16a1.23,1.23,0,0,1,.62.17,20.66,20.66,0,0,1,2.91,2,1.11,1.11,0,0,1,.37.67,1,1,0,0,1-.26.65,1.17,1.17,0,0,1-.69.49,1.08,1.08,0,0,1-.58-.13A2.92,2.92,0,0,1,83.93,6a25.68,25.68,0,0,0-2.3-1.62,1.62,1.62,0,0,1-.22-.2A.87.87,0,0,1,81,3.5a1,1,0,0,1,.33-.74A1,1,0,0,1,82.08,2.44Zm9,.78a1.09,1.09,0,0,1,.6.21A.71.71,0,0,1,92,4a1.13,1.13,0,0,1-.15.54A16.45,16.45,0,0,1,90.06,7c.15.36.28.71.41,1a16.57,16.57,0,0,1,.93,5.39,10.4,10.4,0,0,1-.61,4.34,2.16,2.16,0,0,1-1.87,1.1,4.8,4.8,0,0,1-2.44-.58,1.18,1.18,0,0,1-.41-.87,1.09,1.09,0,0,1,.21-.69.67.67,0,0,1,.56-.26,2,2,0,0,1,.33,0,4.28,4.28,0,0,0,1.47.3q.81-.24.84-1.62c0-.66,0-1.28,0-1.86a4.1,4.1,0,0,1,0-.49A15.92,15.92,0,0,1,87.19,15a1.32,1.32,0,0,1-.8.26,1.17,1.17,0,0,1-.73-.37,1,1,0,0,1-.28-.67.61.61,0,0,1,.17-.43c.7-.59,1.39-1.18,2-1.77a21.28,21.28,0,0,0,1.57-1.51,11.22,11.22,0,0,0-.47-1.76,2.33,2.33,0,0,1-.13-.31,11.54,11.54,0,0,1-1.19,1,1.54,1.54,0,0,1-1.06.48.89.89,0,0,1-.64-.3.86.86,0,0,1-.24-.56.55.55,0,0,1,.17-.37A17,17,0,0,0,87,7.47l.79-.82a17.2,17.2,0,0,0-1.27-2.2,1.4,1.4,0,0,1-.28-.69.89.89,0,0,1,.3-.69,1,1,0,0,1,.65-.18,1.34,1.34,0,0,1,.86.41,12.78,12.78,0,0,1,1.1,1.75c.4-.46.78-.92,1.12-1.38A1.19,1.19,0,0,1,91.05,3.22Zm2.16.54h5.52a1,1,0,0,1,.69.17c.18.11.26.37.26.78a1.21,1.21,0,0,1-.15.7.91.91,0,0,1-.8.33H97V9.45h1.62a1.09,1.09,0,0,1,.69.17.89.89,0,0,1,.26.76,1.41,1.41,0,0,1-.15.74,1,1,0,0,1-.8.29H97v4.43H99.1a1.07,1.07,0,0,1,.69.19c.17.12.26.39.26.82a1.3,1.3,0,0,1-.15.74,1,1,0,0,1-.8.3H92.71a1,1,0,0,1-.69-.24,1,1,0,0,1-.26-.8A1.12,1.12,0,0,1,92,16a1.09,1.09,0,0,1,.69-.17h2.23V11.41H93.21a.89.89,0,0,1-.95-1,1,1,0,0,1,.28-.78,1.12,1.12,0,0,1,.67-.15h1.73V5.74H93.21a.88.88,0,0,1-.67-.26.93.93,0,0,1-.28-.77.92.92,0,0,1,.28-.78A1,1,0,0,1,93.21,3.76Z"/><path class="cls-2" d="M108.57,2.89H122a1.52,1.52,0,0,1,1.72,1.73v7.16c0,1.08-.63,1.62-1.9,1.62H109.34v5.26a.66.66,0,0,0,.71.72h11.83a1,1,0,0,0,.84-.65,2.46,2.46,0,0,0,.13-1.12,16,16,0,0,0,.07-1.62c.07-.57.44-.86,1.1-.86a1.34,1.34,0,0,1,.9.26,1,1,0,0,1,.5.86,10.59,10.59,0,0,1-.58,4.32,2.55,2.55,0,0,1-2.46,1.2H108.57a1.55,1.55,0,0,1-1.36-.71,3.3,3.3,0,0,1-.37-1.85V4.62A1.53,1.53,0,0,1,108.57,2.89Zm.77,7.83a.33.33,0,0,0,.37.37H114V5.2h-4.29a.33.33,0,0,0-.37.37Zm7.11-5.52v5.89h4.4c.23,0,.34-.12.34-.37V5.57c0-.25-.11-.37-.34-.37Z"/><path class="cls-2" d="M132.58,8.92H140V3.5a1.46,1.46,0,0,1,.28-1,1.24,1.24,0,0,1,1-.33,1.22,1.22,0,0,1,1,.3,1.41,1.41,0,0,1,.3,1V8.92h7.62a1.24,1.24,0,0,1,.86.25,1.17,1.17,0,0,1,.25.89,1.29,1.29,0,0,1-.21.82,1.06,1.06,0,0,1-.9.39h-7.62v7.16h6.84a1.33,1.33,0,0,1,.93.26c.17.14.25.45.25.93a1.41,1.41,0,0,1-.21.84,1.2,1.2,0,0,1-1,.36h-16a1.34,1.34,0,0,1-.91-.28,1.11,1.11,0,0,1-.3-.92,1.42,1.42,0,0,1,.3-1,1.59,1.59,0,0,1,.91-.23H140V11.27h-7.42a1.25,1.25,0,0,1-.87-.29,1.28,1.28,0,0,1-.27-.92,1.3,1.3,0,0,1,.27-.89A1.35,1.35,0,0,1,132.58,8.92Z"/></g></g></svg>