<svg xmlns="http://www.w3.org/2000/svg" viewBox="0 0 38.34 38.34"><defs><style>.cls-1{fill:none;stroke:gray;stroke-miterlimit:10;stroke-width:1.1px;}.cls-2{fill:gray;}</style></defs><title>qusent</title><g id="圖層_2" data-name="圖層 2"><g id="圖層_1-2" data-name="圖層 1"><path class="cls-1" d="M19.17.55A18.62,18.62,0,1,0,37.79,19.17,18.62,18.62,0,0,0,19.17.55Z"/><path class="cls-2" d="M18,21.9a6.46,6.46,0,0,1,.1-1.27,3,3,0,0,1,.31-.89A4.56,4.56,0,0,1,19,19c.24-.26.55-.57.92-.94s.55-.58.84-.87a8.14,8.14,0,0,0,.77-.9,4.89,4.89,0,0,0,.57-1,3,3,0,0,0,.22-1.19,3.11,3.11,0,0,0-.77-2.17,2.8,2.8,0,0,0-2.16-.84,3.14,3.14,0,0,0-2.28.83A3.76,3.76,0,0,0,16,14.06l-2.49-.28a6.07,6.07,0,0,1,.71-2,5,5,0,0,1,1.28-1.48,5.71,5.71,0,0,1,1.77-.91,7,7,0,0,1,2.13-.32,6.86,6.86,0,0,1,2.11.32,4.74,4.74,0,0,1,1.71.94,4.33,4.33,0,0,1,1.15,1.54A5.11,5.11,0,0,1,24.81,14a4.74,4.74,0,0,1-.27,1.64A5.37,5.37,0,0,1,23.85,17a7.42,7.42,0,0,1-1,1.19l-1.18,1.15A7.81,7.81,0,0,0,21,20a2.39,2.39,0,0,0-.4.63,2.79,2.79,0,0,0-.18.73,9.33,9.33,0,0,0,0,1v1.27H18ZM19.17,26a1.59,1.59,0,0,1,1.17.48,1.56,1.56,0,0,1,.49,1.17,1.58,1.58,0,0,1-.51,1.18,1.66,1.66,0,0,1-1.15.48A1.65,1.65,0,0,1,18,28.8a1.58,1.58,0,0,1-.51-1.18A1.56,1.56,0,0,1,18,26.45,1.59,1.59,0,0,1,19.17,26Z"/></g></g></svg>