<svg xmlns="http://www.w3.org/2000/svg" viewBox="0 0 22.99 22.01"><defs><style>.cls-1{fill:#595757;}</style></defs><title>會員</title><g id="圖層_2" data-name="圖層 2"><g id="圖層_1-2" data-name="圖層 1"><path class="cls-1" d="M18,16.44c-3-1.09-4-2-4-4,0-1.19.92-.8,1.33-3,.16-.9,1,0,1.13-2.08,0-.82-.44-1-.44-1s.22-1.22.31-2.15C16.46,3,15.68,0,11.49,0s-5,3-4.85,4.19c.08.93.31,2.15.31,2.15s-.44.21-.44,1c.15,2.07,1,1.18,1.13,2.08.41,2.18,1.33,1.79,1.33,3,0,2-1,2.92-4,4s-5,2.23-5,3V22H23V19.44C23,18.67,21,17.55,18,16.44Z"/></g></g></svg>