<svg xmlns="http://www.w3.org/2000/svg" viewBox="0 0 26.59 21.75"><defs><style>.cls-1{fill:#595757;}.cls-2{fill:#fff;}</style></defs><title>聯絡我們</title><g id="圖層_2" data-name="圖層 2"><g id="圖層_1-2" data-name="圖層 1"><ellipse class="cls-1" cx="13.29" cy="10.88" rx="13.29" ry="10.88"/><polygon class="cls-1" points="2.46 16.38 1.26 20.39 5.34 19.43 2.46 16.38"/><path class="cls-2" d="M7.56,8.81a1.77,1.77,0,1,0,1.76,1.76A1.76,1.76,0,0,0,7.56,8.81Zm5.61,0a1.77,1.77,0,1,0,1.76,1.76A1.76,1.76,0,0,0,13.17,8.81Zm5.61,0a1.77,1.77,0,1,0,1.76,1.76A1.76,1.76,0,0,0,18.78,8.81Z"/></g></g></svg>