<svg xmlns="http://www.w3.org/2000/svg" viewBox="0 0 25.8 19.51"><defs><style>.cls-1{fill:#595757;fill-rule:evenodd;}</style></defs><title>購物車</title><g id="圖層_2" data-name="圖層 2"><g id="圖層_1-2" data-name="圖層 1"><path class="cls-1" d="M9.86,2.82c2.8,0,5.61,0,8.41,0a.42.42,0,0,0,.48-.35c.16-.49.34-1,.52-1.45a1.49,1.49,0,0,1,1.48-1h3.5a1.5,1.5,0,1,1,0,3c-.74,0-1.48,0-2.22,0a.37.37,0,0,0-.42.3q-1.74,4.83-3.49,9.65a1.59,1.59,0,0,1-1.8,1.27H5a4.87,4.87,0,0,1-.65-.05,1.35,1.35,0,0,1-1.18-1c-.74-2-1.48-4.07-2.23-6.11C.65,6.35.41,5.61.12,4.89A1.52,1.52,0,0,1,1.6,2.8c2.75.05,5.5,0,8.26,0Z"/><path class="cls-1" d="M1.76,17.32A2.16,2.16,0,1,1,3.9,19.51,2.15,2.15,0,0,1,1.76,17.32Z"/><path class="cls-1" d="M17.29,15.2a2.16,2.16,0,1,1-2.16,2.12A2.15,2.15,0,0,1,17.29,15.2Z"/></g></g></svg>