<svg xmlns="http://www.w3.org/2000/svg" viewBox="0 0 38.34 38.34"><defs><style>.cls-1{fill:none;stroke:gray;stroke-miterlimit:10;stroke-width:1.1px;}.cls-2{fill:gray;}</style></defs><title>ask</title><g id="圖層_2" data-name="圖層 2"><g id="圖層_1-2" data-name="圖層 1"><path class="cls-1" d="M19.17.55A18.62,18.62,0,1,0,37.79,19.17,18.62,18.62,0,0,0,19.17.55Z"/><path class="cls-2" d="M18,21.9a6.93,6.93,0,0,1,.1-1.27,3.11,3.11,0,0,1,.32-.9,4,4,0,0,1,.58-.79q.36-.39.91-.94l.84-.87a7.79,7.79,0,0,0,.77-.9,4.84,4.84,0,0,0,.57-1,3,3,0,0,0,.22-1.19,3.08,3.08,0,0,0-.77-2.17A2.78,2.78,0,0,0,19.39,11a3.17,3.17,0,0,0-2.28.83A3.75,3.75,0,0,0,16,14.06l-2.49-.28a6.06,6.06,0,0,1,.7-2,5,5,0,0,1,1.29-1.48,5.7,5.7,0,0,1,1.77-.91,7,7,0,0,1,2.13-.32,6.85,6.85,0,0,1,2.11.32,5,5,0,0,1,1.71.94,4.31,4.31,0,0,1,1.15,1.55A5.1,5.1,0,0,1,24.81,14a4.88,4.88,0,0,1-.26,1.65A5.81,5.81,0,0,1,23.85,17a7.93,7.93,0,0,1-1,1.19l-1.19,1.15c-.29.28-.53.52-.7.72a2.38,2.38,0,0,0-.4.64,2.61,2.61,0,0,0-.18.73c0,.27,0,.59,0,1v1.27H18ZM19.17,26a1.65,1.65,0,0,1,1.66,1.66,1.55,1.55,0,0,1-.51,1.17,1.59,1.59,0,0,1-2.29,0,1.54,1.54,0,0,1-.51-1.17A1.65,1.65,0,0,1,19.17,26Z"/></g></g></svg>