<svg xmlns="http://www.w3.org/2000/svg" viewBox="0 0 38.34 38.34"><defs><style>.cls-1{fill:none;stroke:gray;stroke-miterlimit:10;stroke-width:1.1px;}.cls-2{fill:gray;}</style></defs><title>line</title><g id="圖層_2" data-name="圖層 2"><g id="圖層_1-2" data-name="圖層 1"><path class="cls-1" d="M19.17.55A18.62,18.62,0,1,0,37.79,19.17,18.62,18.62,0,0,0,19.17.55Z"/><path class="cls-2" d="M12.81,22.5c-1,0-1.92,0-2.87,0a.85.85,0,0,1-.93-1q0-3,0-5.9c0-.57.21-.95.84-.93s.76.37.76.91c0,1.43,0,2.85,0,4.28v1h2.18c.52,0,.89.21.91.78S13.31,22.5,12.81,22.5Z"/><path class="cls-2" d="M16.13,21.67a1.16,1.16,0,0,1-.79.79c-.5.07-.78-.34-.77-.89,0-1,0-2,0-3s0-2,0-3c0-.5.17-.83.71-.87a.74.74,0,0,1,.88.8C16.18,17.57,16.2,19.62,16.13,21.67Z"/><path class="cls-2" d="M23.15,22.39a1.1,1.1,0,0,1-.93-.31c-.87-1.08-1.67-2.22-2.49-3.34-.16-.22-.35-.41-.7-.84,0,1.24,0,2.22,0,3.2,0,.28,0,.64-.1.83a1.26,1.26,0,0,1-.85.5.91.91,0,0,1-.61-.66c0-2.14,0-4.27,0-6.41,0-.21.3-.6.45-.59a1.47,1.47,0,0,1,1,.35c.89,1.1,1.7,2.27,2.54,3.41.13.17.28.32.6.69,0-1.14,0-2,0-2.93a5.93,5.93,0,0,1,0-.86c.06-.49.36-.85.85-.7.29.09.67.47.68.73.06,2.05.05,4.1,0,6.16A1,1,0,0,1,23.15,22.39Z"/><path class="cls-2" d="M28.65,17.8c.51,0,.9.16.91.75s-.37.78-.88.79H26.54v1.57h2c.53,0,1,.13,1,.78s-.42.81-1,.82c-.9,0-1.81,0-2.7,0-.64,0-1-.28-1-1q0-2.95,0-5.9c0-.64.25-.95.9-.93,1,0,1.91,0,2.87,0,.52,0,.91.15.89.75s-.41.75-.91.76H26.54v1.6Z"/></g></g></svg>