<svg xmlns="http://www.w3.org/2000/svg" viewBox="0 0 151.3 25"><defs><style>.cls-1,.cls-5{fill:#458ac2;}.cls-1,.cls-3{fill-rule:evenodd;}.cls-2,.cls-3{fill:#40569b;}.cls-4{fill:#fff;}</style></defs><title>logo</title><g id="圖層_2" data-name="圖層 2"><g id="圖層_1-2" data-name="圖層 1"><path class="cls-1" d="M41.73,1.64a69.25,69.25,0,0,0-17.89,2.2A83.42,83.42,0,0,1,38.2,2.64C56.86,2.64,72,8.31,72,15.31c0,3.89-4.67,7.37-12,9.69,8.27-2.32,13.69-6.17,13.69-10.53C73.66,7.38,59.36,1.64,41.73,1.64Z"/><path class="cls-2" d="M24.9,14.24l.34-1.39.18,0h.34a1.84,1.84,0,0,0,1.8-1.67,1.48,1.48,0,0,0,0-.27,1.26,1.26,0,0,0-.65-1.19,1.55,1.55,0,0,0-1-.21.59.59,0,0,1-.26,0L23.1,19.44H20.67l2.41-9.26a2.37,2.37,0,0,1-1.22.3l-.47,0L21.77,9h.38a1.64,1.64,0,0,0,1.51-1h2q2.57,0,3.56,1.36a2.33,2.33,0,0,1,.51,1.48,3,3,0,0,1-.43,1.53,3.25,3.25,0,0,1-1.13,1.17,2.76,2.76,0,0,1,1,2.24,4,4,0,0,1-.41,1.73A3.84,3.84,0,0,1,27.41,19a3,3,0,0,1-1.7.55,2.69,2.69,0,0,1-1.19-.27l-.84-.43.41-1.68a1.56,1.56,0,0,0,.28.24,1.4,1.4,0,0,0,.75.29.84.84,0,0,0,.3,0,1.61,1.61,0,0,0,1-.35,1.83,1.83,0,0,0,.69-1.12,2.8,2.8,0,0,0,0-.47,1.38,1.38,0,0,0-1-1.37,3.14,3.14,0,0,0-1.25-.2l0,0Z"/><path class="cls-2" d="M32,17.76a.39.39,0,0,0,.26.08,1.56,1.56,0,0,0,.65-.19,1.69,1.69,0,0,0,.74-.92l1.18-4.51H37L35.12,19.5H33l.13-.44a3.91,3.91,0,0,1-1.86.49h-.34a1.65,1.65,0,0,1-1.25-1.83,2.45,2.45,0,0,1,0-.49l1.31-5h2.1l-1.31,5a1.45,1.45,0,0,0,0,.15A.43.43,0,0,0,32,17.76Z"/><path class="cls-2" d="M42.39,14.26a3.4,3.4,0,0,0-2-.63.94.94,0,0,0-.52.17.49.49,0,0,0-.26.41q0,.24.66.58a8.09,8.09,0,0,1,1.22.7,1.63,1.63,0,0,1,.64,1.28,2.68,2.68,0,0,1-.87,2.09,3.14,3.14,0,0,1-2.18.79,6.19,6.19,0,0,1-1.25-.18,3.24,3.24,0,0,1-1.15-.38l.43-1.7a3.93,3.93,0,0,0,2,.49c.67,0,1-.19,1-.57s-.2-.54-.6-.77l-1.2-.65a1.44,1.44,0,0,1-.63-1.19,2.5,2.5,0,0,1,.92-2A3.06,3.06,0,0,1,40.63,12a3.79,3.79,0,0,1,2.18.57Z"/><path class="cls-2" d="M51.51,7.8a6.41,6.41,0,0,1,1.65.26,4.1,4.1,0,0,1,1.21.49l-.56,2.12A4.89,4.89,0,0,0,51,9.86a1.43,1.43,0,0,0-.83.26,1.28,1.28,0,0,0-.63.86q-.15.75,1,1.39a6.76,6.76,0,0,1,1.82,1.36,3,3,0,0,1,.66,2.2,3.75,3.75,0,0,1-1.47,2.69,4.19,4.19,0,0,1-2.81.93,6.18,6.18,0,0,1-1.91-.32c-.3-.08-.71-.22-1.25-.41l.57-2.14a5.5,5.5,0,0,0,2.67.7,2.46,2.46,0,0,0,1.27-.3A1.2,1.2,0,0,0,50.72,16a1.7,1.7,0,0,0-1-1.53l-1.19-.69A3.24,3.24,0,0,1,48,13.4a2.33,2.33,0,0,1-.7-1.58,3.1,3.1,0,0,1,.08-.64,2,2,0,0,0,1-.46,2.79,2.79,0,0,0,.76-.86,2.54,2.54,0,0,1-2,.72,6.22,6.22,0,0,1-.63,0l.38-1.44h.52a2.33,2.33,0,0,0,1.41-.38A4.4,4.4,0,0,1,51.51,7.8Z"/><path class="cls-2" d="M59.5,20.55a.71.71,0,0,0,.64-.29l.47,1.38a2.89,2.89,0,0,1-2.06.82,1.91,1.91,0,0,1-1.47-.63,1.68,1.68,0,0,1-.49-1.1q0,.12.13-1.27L58,14.58a.52.52,0,0,0,0-.15.45.45,0,0,0-.23-.41.44.44,0,0,0-.26-.08,1.06,1.06,0,0,0-.59.24,4.59,4.59,0,0,0-.44.4,1.55,1.55,0,0,0-.35.47L55,19.45h-2.1L55.71,8.62h2.12l-1.07,4.06a3.27,3.27,0,0,1,1.65-.49,1.85,1.85,0,0,1,.51.06,2.06,2.06,0,0,1,1.19,2.32l-1.27,4.89a1.39,1.39,0,0,0,.18.89A.66.66,0,0,0,59.5,20.55Z"/><path class="cls-2" d="M62,19.36a2.7,2.7,0,0,1-1.44-2.69,4.68,4.68,0,0,1,.5-2.09,4.62,4.62,0,0,1,1.45-1.78,3.16,3.16,0,0,1,1.86-.66,2.21,2.21,0,0,1,1,.24,2.68,2.68,0,0,1,1.43,2.68,4.68,4.68,0,0,1-.5,2.09,4.61,4.61,0,0,1-1.45,1.78,3.14,3.14,0,0,1-1.86.66A2.33,2.33,0,0,1,62,19.36Zm2.4-5.58a1.18,1.18,0,0,0-.78.44,3.7,3.7,0,0,0-.73,1.17,3.89,3.89,0,0,0-.32,1.48c0,.67.19,1,.58,1a1.18,1.18,0,0,0,.78-.43,3.58,3.58,0,0,0,.74-1.18,3.82,3.82,0,0,0,.31-1.46Q64.94,13.79,64.36,13.79Z"/><path class="cls-2" d="M68.68,18.63l-1,4H65.52l2.7-10.39h2.11l-.17.67a2.59,2.59,0,0,1,1.63-.67,1.75,1.75,0,0,1,.66.12,2.29,2.29,0,0,1,1.21,2.37,5.24,5.24,0,0,1-.46,2.09,5.13,5.13,0,0,1-1.36,1.93,2.65,2.65,0,0,1-1.71.74A1.62,1.62,0,0,1,68.68,18.63Zm2.41-5a1.16,1.16,0,0,0-.8.47,4.25,4.25,0,0,0-1,2.54c0,.68.2,1,.6,1a1.15,1.15,0,0,0,.79-.47A3.88,3.88,0,0,0,71.43,16a3.81,3.81,0,0,0,.26-1.31Q71.69,13.66,71.09,13.66Z"/><path class="cls-1" d="M2.08,7.91,5.15,3.79A3.53,3.53,0,0,1,6.64,2.4a3,3,0,0,1,1.7.14,2.91,2.91,0,0,1-.52.71,1.12,1.12,0,0,0-1.71.88,1.87,1.87,0,0,0,2.18-.3v0a1.12,1.12,0,1,1-2.19.27C8.17,4.4,9.83,1.56,8.27,0a2,2,0,0,1,.79,2.75l4.52,1.37c1.14.35,1.87.58,2.24,1.71l3.56,10.79A2.18,2.18,0,0,1,18,19.37l-5.2,1.72L7.6,22.8a2.18,2.18,0,0,1-2.74-1.38L1.3,10.63c-.37-1.13.07-1.75.78-2.71Z"/><path class="cls-3" d="M1.32,6.16,5.14,2.72A3.53,3.53,0,0,1,6.87,1.65a3.52,3.52,0,0,1,1.94.62h0A4,4,0,0,0,6.52,2,4,4,0,0,0,4.84,3.56L1.77,7.68C1,8.7.5,9.44.93,10.75L4.49,21.54l.08.21-.74.09A2.18,2.18,0,0,1,1.4,19.95L0,8.67C-.12,7.48.44,7,1.32,6.16Z"/><path class="cls-4" d="M10.14,6.4A7.06,7.06,0,0,1,12,6.11a4.58,4.58,0,0,1,1.45.11l.13,2.45a5.42,5.42,0,0,0-3.25.1,1.58,1.58,0,0,0-.79.56,1.43,1.43,0,0,0-.37,1.13q.09.85,1.53,1.13a7.56,7.56,0,0,1,2.4.82,3.3,3.3,0,0,1,1.45,2.11,4.19,4.19,0,0,1-.64,3.36,4.69,4.69,0,0,1-2.67,2,6.8,6.8,0,0,1-2.14.31c-.34,0-.83,0-1.47,0l-.13-2.47a6.12,6.12,0,0,0,3.08-.17,2.72,2.72,0,0,0,1.24-.76,1.33,1.33,0,0,0,.3-1.35,1.89,1.89,0,0,0-1.56-1.29L9,13.78a3.38,3.38,0,0,1-.72-.22A2.59,2.59,0,0,1,7,12.12a3.55,3.55,0,0,1-.14-.71,2.18,2.18,0,0,0,.95-.84A3.1,3.1,0,0,0,8.37,9.4a2.82,2.82,0,0,1-1.93,1.46c-.22.07-.44.13-.68.18L5.67,9.39l.55-.18a2.59,2.59,0,0,0,1.36-.89A4.91,4.91,0,0,1,10.14,6.4Z"/><circle class="cls-5" cx="23.84" cy="3.81" r="1.36"/><path class="cls-2" d="M80.87,11.67h2.53A1.14,1.14,0,0,1,84.66,13V18.6a1.4,1.4,0,0,0,1,.91,17.1,17.1,0,0,0,4.62.45c2,0,3.79,0,5.46,0q2.2,0,3.73,0a1.13,1.13,0,0,1,.74.21.91.91,0,0,1,.3.73,1.48,1.48,0,0,1-.26,1,1.3,1.3,0,0,1-.86.32H90.83q-4.92,0-6.54-1.25a1,1,0,0,0-.49-.15.33.33,0,0,0-.22.1,10,10,0,0,1-1.4,1,1.16,1.16,0,0,1-.6.3A.93.93,0,0,1,81,22a2.5,2.5,0,0,1-.71-.89,1.06,1.06,0,0,1-.09-.36A1,1,0,0,1,80.7,20a12.45,12.45,0,0,0,1.7-1.08.49.49,0,0,0,.22-.33V13.94a.15.15,0,0,0-.17-.17H80.87a1,1,0,0,1-.73-.3,1,1,0,0,1-.21-.73,1.05,1.05,0,0,1,.23-.76A.89.89,0,0,1,80.87,11.67Zm.35-5.07a1.28,1.28,0,0,1,.63.15,21.77,21.77,0,0,1,2.91,2.16,1.33,1.33,0,0,1,.37.69,1,1,0,0,1-.26.67,1.25,1.25,0,0,1-.69.45,1.15,1.15,0,0,1-.58-.13,3.34,3.34,0,0,1-.51-.33,27.24,27.24,0,0,0-2.31-1.75l-.21-.19a1.05,1.05,0,0,1-.37-.71,1.06,1.06,0,0,1,.32-.74A1.08,1.08,0,0,1,81.21,6.6Zm.86-4.16a1.18,1.18,0,0,1,.62.17,20.82,20.82,0,0,1,2.91,2,1.16,1.16,0,0,1,.37.67,1,1,0,0,1-.26.65,1.17,1.17,0,0,1-.69.49,1.13,1.13,0,0,1-.58-.13A3.17,3.17,0,0,1,83.93,6a25.52,25.52,0,0,0-2.31-1.62l-.22-.2A.89.89,0,0,1,81,3.5a1,1,0,0,1,.32-.73A1,1,0,0,1,82.08,2.44Zm9,.78a1.1,1.1,0,0,1,.6.21A.72.72,0,0,1,92,4a1.19,1.19,0,0,1-.15.54A16.53,16.53,0,0,1,90.06,7c.15.36.28.7.41,1a16.68,16.68,0,0,1,.93,5.39,10.44,10.44,0,0,1-.6,4.34,2.17,2.17,0,0,1-1.88,1.1,4.74,4.74,0,0,1-2.44-.58,1.18,1.18,0,0,1-.41-.86,1.07,1.07,0,0,1,.21-.69.67.67,0,0,1,.56-.26,1.73,1.73,0,0,1,.32,0,4.4,4.4,0,0,0,1.47.3c.55-.16.82-.7.84-1.62,0-.66,0-1.28,0-1.86,0-.17,0-.34,0-.5A15.2,15.2,0,0,1,87.19,15a1.28,1.28,0,0,1-.8.26,1.19,1.19,0,0,1-.73-.37,1,1,0,0,1-.28-.67.58.58,0,0,1,.17-.43c.7-.59,1.39-1.18,2-1.77s1.15-1,1.58-1.51a12.35,12.35,0,0,0-.47-1.77,2.47,2.47,0,0,1-.13-.3,13.56,13.56,0,0,1-1.19,1,1.55,1.55,0,0,1-1.06.47.88.88,0,0,1-.64-.3.86.86,0,0,1-.24-.56.52.52,0,0,1,.17-.37A15.73,15.73,0,0,0,87,7.47l.8-.82a18.43,18.43,0,0,0-1.27-2.2,1.38,1.38,0,0,1-.28-.69.9.9,0,0,1,.3-.69,1.08,1.08,0,0,1,.64-.17,1.34,1.34,0,0,1,.87.41,13.35,13.35,0,0,1,1.1,1.75c.4-.46.78-.92,1.12-1.38A1.18,1.18,0,0,1,91.05,3.22Zm2.16.54h5.52a1.05,1.05,0,0,1,.69.17c.17.11.26.37.26.78a1.24,1.24,0,0,1-.15.71.92.92,0,0,1-.8.33H97V9.45h1.62a1.07,1.07,0,0,1,.69.17q.26.17.26.76a1.31,1.31,0,0,1-.15.73,1,1,0,0,1-.8.3H97v4.42H99.1a1.06,1.06,0,0,1,.69.2c.17.12.26.39.26.82a1.25,1.25,0,0,1-.15.73,1,1,0,0,1-.8.3H92.71a.94.94,0,0,1-.69-.24,1,1,0,0,1-.26-.8A1.12,1.12,0,0,1,92,16a1.06,1.06,0,0,1,.69-.17h2.22V11.41H93.21a1,1,0,0,1-.67-.23.93.93,0,0,1-.28-.8.94.94,0,0,1,.28-.78,1.14,1.14,0,0,1,.67-.15h1.73V5.74H93.21a.91.91,0,0,1-.67-.26.94.94,0,0,1-.28-.78.9.9,0,0,1,.28-.78A1,1,0,0,1,93.21,3.76Z"/><path class="cls-2" d="M108.57,2.89H122a1.53,1.53,0,0,1,1.73,1.73v7.16q0,1.62-1.9,1.62H109.34v5.26a.65.65,0,0,0,.71.71h11.83a.94.94,0,0,0,.84-.65,2.46,2.46,0,0,0,.13-1.12,15.08,15.08,0,0,0,.07-1.62c.07-.57.44-.86,1.1-.86a1.43,1.43,0,0,1,.91.26,1,1,0,0,1,.5.86,10.53,10.53,0,0,1-.58,4.32,2.54,2.54,0,0,1-2.46,1.21h-13.8a1.57,1.57,0,0,1-1.36-.71,3.38,3.38,0,0,1-.37-1.85V4.62A1.53,1.53,0,0,1,108.57,2.89Zm.77,7.83a.32.32,0,0,0,.37.37H114V5.2h-4.29a.32.32,0,0,0-.37.36Zm7.1-5.52v5.89h4.4c.23,0,.35-.12.35-.37V5.57c0-.24-.12-.36-.35-.36Z"/><path class="cls-2" d="M132.58,8.92H140V3.5a1.43,1.43,0,0,1,.28-1,1.25,1.25,0,0,1,1-.33,1.2,1.2,0,0,1,1,.3,1.4,1.4,0,0,1,.3,1V8.92h7.62a1.26,1.26,0,0,1,.86.26,1.14,1.14,0,0,1,.25.88,1.34,1.34,0,0,1-.21.82,1.07,1.07,0,0,1-.9.39h-7.62v7.16h6.84a1.36,1.36,0,0,1,.93.26,1.23,1.23,0,0,1,.26.93,1.37,1.37,0,0,1-.21.84,1.19,1.19,0,0,1-1,.36h-16a1.34,1.34,0,0,1-.9-.28,1.14,1.14,0,0,1-.3-.93,1.41,1.41,0,0,1,.3-1,1.54,1.54,0,0,1,.9-.23H140V11.27h-7.42a1.22,1.22,0,0,1-.87-.28,1.28,1.28,0,0,1-.28-.93,1.26,1.26,0,0,1,.28-.88A1.31,1.31,0,0,1,132.58,8.92Z"/></g></g></svg>