<svg xmlns="http://www.w3.org/2000/svg" viewBox="0 0 22.99 22.01"><defs><style>.cls-1{fill:#595757;}</style></defs><title>member</title><g id="圖層_2" data-name="圖層 2"><g id="圖層_1-2" data-name="圖層 1"><path class="cls-1" d="M18,16.44c-3-1.1-4-2-4-4,0-1.19.92-.8,1.32-3,.17-.9,1,0,1.14-2.08,0-.82-.44-1-.44-1s.23-1.22.31-2.16C16.46,3,15.68,0,11.49,0s-5,3-4.86,4.19c.09.94.31,2.16.31,2.16s-.44.2-.44,1c.16,2.07,1,1.18,1.14,2.08C8,11.63,9,11.24,9,12.43c0,2-1,2.91-4,4s-5,2.23-5,3V22H23V19.44C23,18.67,21,17.55,18,16.44Z"/></g></g></svg>