<?xml version="1.0" encoding="utf-8"?>
<!-- Generator: Adobe Illustrator 21.1.0, SVG Export Plug-In . SVG Version: 6.00 Build 0)  -->
<svg version="1.1" id="圖層_1" xmlns="http://www.w3.org/2000/svg" xmlns:xlink="http://www.w3.org/1999/xlink" x="0px" y="0px"
	 viewBox="0 0 70.9 70.9" style="enable-background:new 0 0 70.9 70.9;" xml:space="preserve">
<style type="text/css">
	.st0{fill:#595757;}
</style>
<title>menu</title>
<g id="圖層_2">
	<g id="圖層_1-2">
		<path class="st0" d="M16.1,30.1h38.7c2.9,0,5.3,2.4,5.3,5.3v0c0,2.9-2.4,5.3-5.3,5.3H16.1c-2.9,0-5.3-2.4-5.3-5.3v0
			C10.8,32.5,13.2,30.1,16.1,30.1z"/>
		<path class="st0" d="M16.1,9.1h38.7c2.9,0,5.3,2.4,5.3,5.3l0,0c0,2.9-2.4,5.3-5.3,5.3H16.1c-2.9,0-5.3-2.4-5.3-5.3l0,0
			C10.8,11.4,13.2,9.1,16.1,9.1z"/>
		<path class="st0" d="M16.1,51.3h38.7c2.9,0,5.3,2.4,5.3,5.3l0,0c0,2.9-2.4,5.3-5.3,5.3H16.1c-2.9,0-5.3-2.4-5.3-5.3l0,0
			C10.8,53.6,13.2,51.3,16.1,51.3z"/>
	</g>
</g>
</svg>
